<svg width="252" height="252" viewBox="0 0 252 252" fill="none" xmlns="http://www.w3.org/2000/svg">
<circle cx="126" cy="126" r="125" fill="#12D760"/>
<circle cx="126" cy="126" r="100" fill="white"/>
<g clip-path="url(#clip0_113_810)">
<path d="M106.569 67.6662L102.983 43.6432L67.2848 91.8682L115.51 127.566L111.908 103.438C129.5 98.0779 149.197 100.714 165.111 112.495C173.008 118.34 178.995 125.758 183.066 133.997C184.301 113.169 175.424 92.1346 157.4 78.7924C142.209 67.5475 123.692 64.1987 106.569 67.6662Z" fill="#12D760"/>
<path d="M86.9337 139.446C79.0368 133.6 73.0502 126.183 68.9784 117.943C67.6994 138.831 76.6212 159.806 94.6453 173.148C109.836 184.393 128.308 187.802 145.476 184.274L149.017 208.357L184.715 160.132L136.49 124.434L140.092 148.562C122.545 153.862 102.848 151.226 86.9337 139.446Z" fill="#12D760"/>
</g>
<defs>
<clipPath id="clip0_113_810">
<rect width="180" height="180" fill="white" transform="translate(0.115479 144.791) rotate(-53.4897)"/>
</clipPath>
</defs>
</svg>
